<?xml version="1.0" encoding="UTF-8"?>
<svg version="1.1" xmlns="http://www.w3.org/2000/svg" width="512" height="512">
<path d="M0 0 C1.31525414 -0.01043099 2.63050827 -0.02086198 3.98561859 -0.03160906 C5.44887 -0.02296045 6.91211921 -0.01393381 8.37536621 -0.00457001 C9.92689856 -0.00917715 11.47842655 -0.01552881 13.02994537 -0.02347898 C17.3002955 -0.04022125 21.57028939 -0.03190387 25.84064102 -0.01953411 C30.44330545 -0.01050588 35.04590744 -0.02444225 39.64855957 -0.0354538 C48.66784918 -0.05326748 57.68700586 -0.04938637 66.70630074 -0.03780323 C74.03455829 -0.02878037 81.36277852 -0.02753993 88.69104004 -0.0318985 C89.73287901 -0.03251143 90.77471799 -0.03312436 91.84812784 -0.03375587 C93.96441079 -0.03503473 96.08069373 -0.03633158 98.19697666 -0.03764623 C118.05496885 -0.04906038 137.91288726 -0.03592525 157.77086735 -0.01444477 C174.82071122 0.00342696 191.87044618 0.00032309 208.92028809 -0.01811981 C228.70580592 -0.0395118 248.49125903 -0.04796166 268.2767868 -0.03567076 C270.38541157 -0.03439652 272.49403635 -0.03313904 274.60266113 -0.0318985 C276.15900512 -0.03097285 276.15900512 -0.03097285 277.74679041 -0.03002849 C285.06871751 -0.02657057 292.39060366 -0.03241344 299.71252441 -0.04181671 C308.63198175 -0.05301951 317.55129823 -0.05003292 326.47073936 -0.02869374 C331.02414073 -0.01816011 335.57730701 -0.01410069 340.13070679 -0.02729034 C344.29560675 -0.03917244 348.46005278 -0.03272138 352.62491131 -0.01138014 C354.13494255 -0.00689623 355.64501182 -0.00922025 357.15501881 -0.01888329 C359.2012202 -0.03097744 361.24752838 -0.01622774 363.29370117 0 C365.00146854 0.00097411 365.00146854 0.00097411 366.74373627 0.00196791 C370.31337547 0.61848003 371.49700658 1.63091534 373.64685059 4.50336456 C374.03141365 7.18195921 374.17116915 9.44639013 374.12786865 12.12158966 C374.13128635 12.8927152 374.13470405 13.66384075 374.13822532 14.45833373 C374.14481829 17.04435923 374.12280555 19.62934863 374.10095215 22.21527863 C374.09982397 24.06806158 374.10045694 25.92084632 374.10272217 27.77362823 C374.10387141 32.80644491 374.08032797 37.83888147 374.05242634 42.87160969 C374.02744779 48.13000634 374.02507348 53.38841139 374.02032471 58.64685822 C374.00788451 68.6057792 373.97504871 78.56452487 373.93492675 88.5233686 C373.89024157 99.86058488 373.86823018 111.19780947 373.84814501 122.53509188 C373.80631705 145.85794669 373.73594464 169.18064581 373.64685059 192.50336456 C374.7164502 192.4824173 375.7860498 192.46147003 376.88806152 192.439888 C380.86123231 192.36741831 384.83434484 192.32153993 388.8079834 192.283638 C390.52683338 192.26353828 392.24561511 192.23625368 393.9642334 192.20160675 C396.43673548 192.15301422 398.90833269 192.13038021 401.38122559 192.11273956 C402.53144196 192.08177185 402.53144196 192.08177185 403.70489502 192.05017853 C407.20810378 192.04870943 409.2654356 192.23443517 412.16345215 194.27777863 C413.64685059 196.50336456 413.64685059 196.50336456 413.64685059 200.50336456 C414.2317627 200.4824173 414.8166748 200.46147003 415.41931152 200.439888 C418.07831524 200.35656341 420.73704414 200.3046556 423.39685059 200.25336456 C424.31724121 200.21984894 425.23763184 200.18633331 426.18591309 200.15180206 C427.07536621 200.13891144 427.96481934 200.12602081 428.88122559 200.11273956 C429.69816895 200.0917923 430.5151123 200.07084503 431.35681152 200.049263 C434.60769526 200.69389453 435.62352132 201.89298414 437.64685059 204.50336456 C438.04002611 207.12363689 438.18808411 209.32471459 438.15478516 211.94281769 C438.1641451 213.07077129 438.1641451 213.07077129 438.17369413 214.22151184 C438.1896573 216.74286443 438.17700748 219.2632547 438.16442871 221.78461456 C438.16984837 223.59150507 438.17697015 225.39839116 438.18566895 227.20526886 C438.2039238 232.11434486 438.19682585 237.02308508 438.1841526 241.93216705 C438.17403614 247.06593491 438.18341451 252.19967372 438.18969727 257.33344269 C438.19697762 265.95524007 438.18737578 274.57690047 438.16833496 283.19867706 C438.1465655 293.17125425 438.1536166 303.14350435 438.17564058 313.11607361 C438.19378352 321.67328698 438.19635832 330.23040179 438.18588591 338.78762817 C438.17964489 343.90069186 438.17883205 349.01360173 438.19203186 354.12665558 C438.20357363 358.93334032 438.19559528 363.73960272 438.17245483 368.54624176 C438.16715878 370.31192066 438.1686968 372.077635 438.17750549 373.84329987 C438.1884096 376.25065269 438.17476104 378.65664567 438.15478516 381.06391144 C438.16816949 382.1162434 438.16816949 382.1162434 438.18182421 383.18983459 C438.12785031 386.53477191 437.8424056 388.24727207 435.78753281 390.93826675 C432.94912697 393.01348498 431.18278722 392.98685983 427.68493652 392.95746613 C426.48399353 392.957164 425.28305054 392.95686188 424.04571533 392.9565506 C422.75393372 392.93590546 421.4621521 392.91526031 420.13122559 392.89398956 C418.7917363 392.88652527 417.45223606 392.88083322 416.11273193 392.87683868 C412.59433622 392.86159669 409.07660543 392.82232874 405.55847168 392.77802277 C401.96562698 392.7370382 398.37267438 392.71882096 394.77966309 392.69867706 C387.73512092 392.65583201 380.69102926 392.58759903 373.64685059 392.50336456 C373.65573303 393.54684052 373.66461548 394.59031647 373.67376709 395.6654129 C373.75481942 405.49449037 373.81479987 415.32350013 373.85409927 425.15283585 C373.87498272 430.20634376 373.9033143 435.25958211 373.9486084 440.31293488 C373.99203898 445.18883924 374.01598198 450.06448417 374.02635956 454.94056702 C374.03375594 456.80174851 374.04819925 458.66291564 374.06977081 460.52398682 C374.09876802 463.12907961 374.10280818 465.73309754 374.10095215 468.3383255 C374.11533325 469.10940643 374.12971436 469.88048737 374.14453125 470.67493439 C374.11911753 473.96698903 374.00224988 476.03096775 371.99328959 478.70127821 C369.00288392 480.99793678 367.36998883 481.0044644 363.62280846 481.00672913 C362.38092243 481.01716012 361.1390364 481.0275911 359.85951746 481.03833818 C358.47900499 481.02968962 357.09849486 481.02066298 355.71798706 481.01129913 C354.25322652 481.01590663 352.7884706 481.02225853 351.32372439 481.03020811 C347.29298235 481.04694682 343.26261785 481.03863454 339.23187423 481.02626324 C334.88676471 481.01723305 330.54172126 481.03117267 326.19662476 481.04218292 C317.68065203 481.05999721 309.16482009 481.05611446 300.64884178 481.04453236 C293.72586022 481.03550617 286.80291816 481.03427052 279.8799324 481.03862762 C278.89533299 481.03924056 277.91073358 481.03985349 276.89629782 481.04048499 C274.89614926 481.04176389 272.8960007 481.04306074 270.89585216 481.04437536 C252.12499256 481.0557906 233.354211 481.04265453 214.5833642 481.02117389 C198.4825796 481.00331874 182.38191042 481.00639214 166.28112793 481.02484894 C147.58766136 481.04626776 128.89426336 481.05467429 110.20078623 481.04239988 C108.20607862 481.04112569 106.211371 481.03986821 104.21666336 481.03862762 C103.23522718 481.03801052 102.25379099 481.03739342 101.24261432 481.03675762 C94.33227234 481.03330651 87.42197388 481.03912827 80.51163864 481.04854584 C72.0834924 481.05977916 63.65549513 481.05669843 55.2273659 481.03542286 C50.92840023 481.02492781 46.62968269 481.02076392 42.33071899 481.03401947 C38.39124845 481.04598244 34.45225481 481.03931698 30.51282723 481.01810926 C29.09151791 481.01365944 27.67016788 481.0158729 26.24888496 481.02561241 C15.46264649 481.09382651 6.30460758 479.79634043 -1.82189941 472.20648956 C-8.03793564 465.29273499 -10.66425795 457.99371269 -10.61041832 448.71719933 C-10.61392439 447.94832974 -10.61743047 447.17946015 -10.62104279 446.38729149 C-10.63035561 443.80781751 -10.62543381 441.22856936 -10.62057495 438.649086 C-10.62431124 436.7823468 -10.62891267 434.91560917 -10.6343056 433.04887402 C-10.64655304 427.9166233 -10.64627309 422.78443767 -10.64391685 417.65217566 C-10.64350914 412.11840034 -10.65454323 406.58464601 -10.66403198 401.05088043 C-10.68065103 390.20976489 -10.68614188 379.3686711 -10.68725674 368.52754389 C-10.6882065 359.71955547 -10.69231319 350.91157425 -10.69865799 342.1035881 C-10.71340431 321.20818584 -10.72570753 300.31278746 -10.72466087 279.41737938 C-10.72462972 278.74922351 -10.72459856 278.08106764 -10.72456646 277.39266463 C-10.72440024 274.00612116 -10.72420216 270.6195777 -10.72399704 267.23303424 C-10.72395715 266.56044434 -10.72391726 265.88785444 -10.72387616 265.19488302 C-10.72379529 263.83474431 -10.72371169 262.47460559 -10.72362538 261.11446687 C-10.72239912 239.93987278 -10.73742746 218.76534268 -10.76477051 197.59076691 C-10.79547051 173.80670497 -10.81267902 150.02267886 -10.81084406 126.23859227 C-10.81017899 113.64284873 -10.81572298 101.04717739 -10.83720016 88.45145035 C-10.85536167 77.7314499 -10.85980063 67.01155439 -10.84618132 56.29154526 C-10.83962701 50.81866439 -10.83962301 45.34598516 -10.85688782 39.87312317 C-10.87251456 34.86825191 -10.86986229 29.86374392 -10.85231955 24.85888208 C-10.84922664 23.04338831 -10.85296726 21.22786812 -10.8640397 19.41240548 C-10.87804786 16.9537728 -10.86766508 14.49643446 -10.85092735 12.03784752 C-10.86086371 11.32490652 -10.87080007 10.61196552 -10.88103753 9.87742025 C-10.8344671 6.66531321 -10.52177618 4.75510618 -8.71911013 2.06391966 C-5.63423438 0.02917811 -3.68761285 0.00210342 0 0 Z " fill="#000000" transform="translate(42.3531494140625,15.496635437011719)"/>
<path d="M0 0 C116.16 0 232.32 0 352 0 C352 58.08 352 116.16 352 176 C325.75726563 176.03867187 325.75726563 176.03867187 298.984375 176.078125 C287.92837408 176.10327895 276.87239078 176.12943647 265.81640625 176.16015625 C260.01058023 176.17624904 254.20475361 176.19209259 248.39892578 176.20751953 C247.30739647 176.21043544 247.30739647 176.21043544 246.19381607 176.21341026 C234.43918097 176.24444805 222.68456541 176.26141024 210.92989704 176.27319422 C198.87032957 176.28559638 186.81086476 176.31307652 174.75136209 176.35461307 C167.97605445 176.37751509 161.20087955 176.393399 154.42552948 176.39188385 C148.05287712 176.39114105 141.6805498 176.4089387 135.30798149 176.44116783 C132.9650184 176.4497106 130.62201903 176.45138733 128.27904701 176.44580269 C125.08772618 176.4392072 121.89745305 176.45697708 118.70623779 176.48101807 C117.77238872 176.47325765 116.83853965 176.46549723 115.87639213 176.45750165 C112.05484409 176.50870251 109.70688462 176.55745113 106.42426491 178.61255264 C104.52033267 181.80405022 104.50217397 184.00457196 104.50552368 187.71813965 C104.50069485 188.39252122 104.49586602 189.0669028 104.49089086 189.76172018 C104.47962257 192.02057782 104.49693547 194.27830264 104.51416016 196.53710938 C104.5120142 198.15680752 104.50813638 199.77650417 104.50265503 201.39619446 C104.4929567 205.79499774 104.508271 210.19339549 104.52856112 214.59214973 C104.54612157 219.19338651 104.54260723 223.79461057 104.5418396 228.39587402 C104.54371301 236.12319733 104.56108215 243.85036361 104.58837891 251.57763672 C104.61983013 260.51404254 104.63037511 269.45027636 104.6289078 278.38673353 C104.62768735 286.97991798 104.63789721 295.57304638 104.65449142 304.16621399 C104.66155584 307.82481829 104.66521774 311.48340276 104.66627884 315.14201355 C104.66828704 319.44957466 104.68049114 323.75699121 104.70061111 328.06450462 C104.70645571 329.64635012 104.70891294 331.22821226 104.70775604 332.81006813 C104.70677524 334.96748618 104.71807933 337.12449877 104.73257446 339.28186035 C104.73592615 340.48974464 104.73927784 341.69762894 104.74273109 342.94211578 C104.99070905 345.88956827 105.35898738 347.56781709 107 350 C109.56893838 351.28446919 111.76576337 351.32977144 114.625 351.5625 C115.62789063 351.64628906 116.63078125 351.73007812 117.6640625 351.81640625 C118.43492187 351.87699219 119.20578125 351.93757813 120 352 C120.04898438 353.25296875 120.09796875 354.5059375 120.1484375 355.796875 C120.22348583 357.44793821 120.29903277 359.09897881 120.375 360.75 C120.4059375 361.575 120.436875 362.4 120.46875 363.25 C120.50742188 364.04921875 120.54609375 364.8484375 120.5859375 365.671875 C120.6173584 366.4050293 120.6487793 367.13818359 120.68115234 367.89355469 C121.04357812 370.2878959 121.73647048 371.93995853 123 374 C126.36091175 375.68045587 130.16125629 375.15409708 133.85830688 375.15821838 C135.25131974 375.16562535 135.25131974 375.16562535 136.67247427 375.17318195 C139.80329477 375.18861464 142.93409468 375.19693315 146.06494141 375.20532227 C148.30166304 375.21489626 150.53838284 375.22490605 152.77510071 375.23532104 C158.86361942 375.26242808 164.95214594 375.28340618 171.04069185 375.30332303 C177.39753431 375.32514691 183.75435258 375.35255315 190.11117554 375.37937927 C200.78602083 375.42367046 211.46087377 375.46449745 222.13574219 375.50268555 C233.13217131 375.54203344 244.12858937 375.58345797 255.125 375.62768555 C256.14128382 375.63177196 256.14128382 375.63177196 257.17809863 375.63594092 C260.57694168 375.64962028 263.97578456 375.66334058 267.37462735 375.67708123 C295.58306203 375.79106773 323.7915211 375.89759998 352 376 C352 383.92 352 391.84 352 400 C350.25271701 400.00238835 348.50543402 400.00477671 346.70520306 400.00723743 C305.21595299 400.06461359 263.72675364 400.13735577 222.23756446 400.22898628 C217.12948657 400.24025427 212.02140842 400.25139275 206.91333008 400.26245117 C205.89641586 400.26465486 204.87950163 400.26685854 203.83177183 400.269129 C187.37220137 400.30448864 170.91263097 400.32936031 154.45303663 400.35034702 C137.56039777 400.37211968 120.66780813 400.40518405 103.77521116 400.44870156 C93.35397626 400.47519299 82.9328027 400.49290685 72.5115358 400.49934604 C65.36252315 400.50460758 58.21358764 400.52085033 51.06461634 400.54566566 C46.94179854 400.55965435 42.81911872 400.56886131 38.69627571 400.56500816 C34.91640161 400.56158277 31.13682159 400.5720494 27.35700766 400.59323552 C25.35299423 400.60094735 23.34894076 400.59408591 21.34492654 400.58658296 C20.13518711 400.5960395 18.92544769 400.60549604 17.67904949 400.61523914 C16.64734935 400.61713775 15.61564922 400.61903635 14.55268544 400.62099248 C9.60084291 401.14926485 4.80446728 402.68969074 0 404 C0 270.68 0 137.36 0 0 Z " fill="#00BA76" transform="translate(48,32)"/>
<path d="M0 0 C64.02 0 128.04 0 194 0 C195.98 5.94 195.98 5.94 198 12 C204.39346777 24.20571119 212.26351468 31.4947435 225 37 C227.64 37.66 230.28 38.32 233 39 C233 60.78 233 82.56 233 105 C229.7 105.99 226.4 106.98 223 108 C209.79942316 113.54928708 201.57273523 122.92491207 196 136 C195.01 139.96 195.01 139.96 194 144 C129.98 144 65.96 144 0 144 C-0.99 140.7 -1.98 137.4 -3 134 C-8.83248863 120.12574673 -18.43507383 112.57737853 -32 107 C-34.31 106.34 -36.62 105.68 -39 105 C-39 83.22 -39 61.44 -39 39 C-36.03 38.01 -33.06 37.02 -30 36 C-16.12147536 30.38736136 -7.87391304 21.78172948 -2 8 C-1.34 5.36 -0.68 2.72 0 0 Z " fill="#C1FA3A" transform="translate(207,224)"/>
<path d="M0 0 C14.42480439 10.88186998 25.2790108 25.51079462 28.2265625 43.6796875 C29.56669694 64.38895245 24.54203289 81.92257868 10.9765625 97.8046875 C3.29258701 106.07875126 -5.23106077 110.83431238 -15.7734375 114.6796875 C-17.21976563 115.21142578 -17.21976563 115.21142578 -18.6953125 115.75390625 C-35.44887709 120.79273215 -52.1787833 117.61709588 -67.5234375 110.0546875 C-81.88969429 101.61667523 -91.10219686 89.13537626 -96.7734375 73.6796875 C-97.09441406 72.926875 -97.41539062 72.1740625 -97.74609375 71.3984375 C-103.18042852 57.04168333 -100.22771474 39.98020363 -94.3359375 26.35546875 C-85.73679272 8.88845592 -71.64240743 -1.89753401 -53.61328125 -8.4453125 C-35.74802917 -13.94987435 -15.47730368 -10.26501584 0 0 Z " fill="#FCD743" transform="translate(339.7734375,242.3203125)"/>
<path d="M0 0 C42.24 0 84.48 0 128 0 C128 29.04 128 58.08 128 88 C85.76 88 43.52 88 0 88 C0 58.96 0 29.92 0 0 Z " fill="#FFDA44" transform="translate(88,72)"/>
<path d="M0 0 C1.78772998 -0.00298657 1.78772998 -0.00298657 3.61157572 -0.00603348 C4.94590691 -0.00318008 6.28023791 -0.00023448 7.61456871 0.00279331 C9.02285194 0.0023576 10.4311351 0.0014827 11.83941782 0.00020415 C15.72284607 -0.00204085 19.60624695 0.00198054 23.48967171 0.00698221 C27.67236139 0.01128645 31.85504943 0.0098403 36.03774071 0.00907993 C43.28904781 0.00855468 50.54034593 0.01170161 57.79165077 0.01731777 C68.27591894 0.02543261 78.76018275 0.02804798 89.24445371 0.02930576 C106.25303088 0.03149631 123.26160327 0.03815646 140.27017784 0.04760838 C156.79589374 0.05678243 173.32160835 0.06386329 189.84732628 0.06811619 C190.86536632 0.06837891 191.88340637 0.06864164 192.93229611 0.06891232 C198.03932313 0.07021732 203.14635016 0.07148104 208.2533772 0.07272422 C250.64504861 0.08309692 293.03671416 0.10098983 335.42838097 0.12304783 C335.42838097 10.68304783 335.42838097 21.24304783 335.42838097 32.12304783 C292.08914456 32.21344018 248.74993073 32.28506835 205.41061877 32.32730915 C200.29609664 32.33231208 195.18157469 32.33748936 190.06705284 32.34277439 C189.04882707 32.34382363 188.03060129 32.34487287 186.98152019 32.34595391 C170.48620177 32.36336763 153.990939 32.39491065 137.49565361 32.43165901 C120.57482243 32.46904152 103.65402043 32.49127798 86.73314965 32.49940181 C76.28880933 32.50489516 65.84462633 32.52225657 55.40033443 32.5547137 C48.24203555 32.57582837 41.0838182 32.58225479 33.92549042 32.57705334 C29.7930954 32.5744868 25.66097561 32.57847042 21.5286293 32.59986973 C17.74590438 32.61931576 13.96364015 32.62033082 10.18089415 32.60664341 C8.1632018 32.60414947 6.14551497 32.62141896 4.12790096 32.63937306 C-6.793499 32.56687657 -6.793499 32.56687657 -11.57161903 28.12304783 C-15.87389493 23.35566102 -16.93444406 19.68557488 -16.85286903 13.40429783 C-16.26342515 8.62325297 -13.42341107 5.87343605 -9.94661903 2.81054783 C-6.31511311 0.2302673 -4.43098333 -0.00162545 0 0 Z " fill="#7F6648" transform="translate(64.57161903381348,447.8769521713257)"/>
<path d="M0 0 C1.25335648 -0.0112088 2.50671295 -0.0224176 3.79804993 -0.03396606 C5.17929541 -0.0210561 6.56053626 -0.00764202 7.94177246 0.00622559 C9.40236556 0.00272308 10.86295485 -0.00293697 12.3235321 -0.0105896 C16.28444302 -0.02482899 20.24465901 -0.00778496 24.20550346 0.01569557 C28.35249436 0.03581408 32.49945667 0.0299245 36.64648438 0.02758789 C43.61042735 0.02764145 50.5740989 0.04739183 57.53796387 0.07946777 C65.58658225 0.11636019 73.63484511 0.12514323 81.68353701 0.11817026 C89.4293882 0.11186269 97.1751176 0.12262425 104.92094421 0.14213562 C108.21589393 0.15030552 111.51078136 0.15301992 114.80574036 0.15144348 C118.68659242 0.15056384 122.56710719 0.16480184 126.44787025 0.19067001 C127.87125831 0.19782561 129.29468227 0.19991834 130.71808434 0.19655228 C132.6625838 0.19283137 134.60709037 0.20944302 136.55151367 0.22705078 C138.18302494 0.23264385 138.18302494 0.23264385 139.84749603 0.23834991 C143.1860126 0.67513452 145.07926517 1.63601755 147.77575684 3.62145996 C148.94786711 5.9656805 148.90642805 7.35357094 148.91619873 9.96638489 C148.92190887 10.87905121 148.92761902 11.79171753 148.9335022 12.73204041 C148.93517899 14.23831749 148.93517899 14.23831749 148.93688965 15.77502441 C148.94185455 16.83042419 148.94681946 17.88582397 148.95193481 18.97320557 C148.96658232 22.47705733 148.97336289 25.98086382 148.97888184 29.48474121 C148.98463132 31.91371157 148.99038908 34.3426819 148.99615479 36.77165222 C149.00667226 41.87027193 149.01250999 46.96887584 149.01599121 52.06750488 C149.02147632 58.60473501 149.04550177 65.1417569 149.07396317 71.6789217 C149.09257594 76.69832471 149.09779443 81.71767744 149.09932709 86.73711205 C149.1023574 89.14728114 149.11039862 91.55744928 149.12351227 93.96758461 C149.14054333 97.33845534 149.13869941 100.70881576 149.13220215 104.07971191 C149.14141693 105.07782394 149.15063171 106.07593597 149.16012573 107.10429382 C149.10747432 115.81272303 149.10747432 115.81272303 145.77575684 119.62145996 C142.53888557 120.70041705 140.19070441 120.75261528 136.78529358 120.76190186 C135.53324127 120.767612 134.28118896 120.77332214 132.99119568 120.77920532 C131.60110484 120.78045065 130.21101388 120.78157575 128.82092285 120.78259277 C127.35900751 120.78722134 125.89709339 120.79224605 124.43518066 120.79763794 C120.46207641 120.81075818 116.48898905 120.81720588 112.51586652 120.8216486 C110.03449542 120.82457925 107.55312895 120.828684 105.07176018 120.83315277 C97.31046907 120.84682522 89.54918852 120.85649375 81.7878862 120.86035466 C72.8237996 120.86483831 63.85986526 120.88240141 54.89582497 120.91135526 C47.96921683 120.93295311 41.04265159 120.94305789 34.11601013 120.94439578 C29.97767182 120.94544495 25.83947669 120.95137675 21.70117378 120.96921539 C17.80974702 120.98566393 13.91857158 120.9878674 10.0271225 120.97907639 C8.59845495 120.97830434 7.16977407 120.98267077 5.74114037 120.99253464 C3.79186897 121.00520472 1.84249711 120.99760365 -0.10679626 120.98895264 C-1.19798987 120.9904192 -2.28918348 120.99188576 -3.41344357 120.99339676 C-6.60097484 120.57160924 -7.95555636 119.86904477 -10.22424316 117.62145996 C-11.16168995 114.80911959 -11.35772118 113.06823484 -11.37814331 110.15628052 C-11.38674377 109.24223953 -11.39534424 108.32819855 -11.40420532 107.38645935 C-11.40846527 106.3858699 -11.41272522 105.38528046 -11.41711426 104.35437012 C-11.42529175 103.29882431 -11.43346924 102.2432785 -11.44189453 101.15574646 C-11.46673931 97.65734425 -11.48326019 94.15898253 -11.49768066 90.66052246 C-11.50300434 89.46696514 -11.50832802 88.27340782 -11.51381302 87.0436821 C-11.54053759 80.72911979 -11.5599168 74.41457723 -11.57434082 68.09997559 C-11.59100832 61.57048133 -11.63580636 55.04148987 -11.68671227 48.51218605 C-11.72032133 43.4970744 -11.7319112 38.48208319 -11.7375679 33.46686935 C-11.74429533 31.05946372 -11.75955576 28.65206642 -11.78345871 26.24477005 C-11.81498253 22.87853856 -11.81516591 19.51367845 -11.80773926 16.14733887 C-11.82414459 15.15079788 -11.84054993 14.1542569 -11.85745239 13.1275177 C-11.84497467 11.74799675 -11.84497467 11.74799675 -11.83224487 10.34060669 C-11.83555502 9.54530863 -11.83886517 8.75001057 -11.84227562 7.93061256 C-10.20894222 1.82799444 -5.85090469 -0.00383279 0 0 Z M4.77575684 16.62145996 C4.77575684 45.66145996 4.77575684 74.70145996 4.77575684 104.62145996 C47.01575684 104.62145996 89.25575684 104.62145996 132.77575684 104.62145996 C132.77575684 75.58145996 132.77575684 46.54145996 132.77575684 16.62145996 C90.53575684 16.62145996 48.29575684 16.62145996 4.77575684 16.62145996 Z " fill="#000000" transform="translate(83.2242431640625,55.3785400390625)"/>
<path d="M0 0 C14.42480439 10.88186998 25.2790108 25.51079462 28.2265625 43.6796875 C29.56669694 64.38895245 24.54203289 81.92257868 10.9765625 97.8046875 C3.29258701 106.07875126 -5.23106077 110.83431238 -15.7734375 114.6796875 C-17.21976563 115.21142578 -17.21976563 115.21142578 -18.6953125 115.75390625 C-35.44887709 120.79273215 -52.1787833 117.61709588 -67.5234375 110.0546875 C-81.88969429 101.61667523 -91.10219686 89.13537626 -96.7734375 73.6796875 C-97.09441406 72.926875 -97.41539062 72.1740625 -97.74609375 71.3984375 C-103.18042852 57.04168333 -100.22771474 39.98020363 -94.3359375 26.35546875 C-85.73679272 8.88845592 -71.64240743 -1.89753401 -53.61328125 -8.4453125 C-35.74802917 -13.94987435 -15.47730368 -10.26501584 0 0 Z M-72.4765625 21.8359375 C-82.00213411 33.62950235 -85.05808243 45.77780634 -83.7734375 60.6796875 C-81.19475491 73.57310046 -75.05195126 84.40785824 -64.7734375 92.6796875 C-52.53494266 100.62636816 -41.16640422 103.38077036 -26.66015625 101.21484375 C-14.11973172 98.46603474 -2.77795277 91.99863005 4.30664062 81.00341797 C11.61887572 68.46369792 14.56526246 55.40137372 11.1015625 41.0546875 C7.11586732 28.39964612 -0.22771688 17.94690599 -12.06445312 11.59692383 C-33.14059543 1.05604701 -56.05405923 4.47201684 -72.4765625 21.8359375 Z " fill="#030401" transform="translate(339.7734375,242.3203125)"/>
<path d="M0 0 C2.64 0 5.28 0 8 0 C8 52.8 8 105.6 8 160 C-84.4 160 -176.8 160 -272 160 C-272 157.36 -272 154.72 -272 152 C-271.43867095 151.99864347 -270.8773419 151.99728694 -270.29900289 151.99588931 C-237.04722351 151.91527987 -203.79549037 151.82434203 -170.54377742 151.71994839 C-166.55327372 151.70742917 -162.56276976 151.69499645 -158.57226562 151.68261719 C-157.77781134 151.68015119 -156.98335705 151.6776852 -156.16482839 151.67514448 C-143.29268796 151.63539562 -130.42053872 151.6026577 -117.54837266 151.57250018 C-104.34526195 151.54141165 -91.14218869 151.50281343 -77.93912005 151.45720994 C-69.78884209 151.42929655 -61.63859158 151.4072759 -53.4882786 151.39273749 C-47.24388334 151.38097216 -40.99956533 151.35877035 -34.75521469 151.33261681 C-32.18971362 151.32351986 -29.62419786 151.3178459 -27.05868149 151.31578636 C-23.56548542 151.31247879 -20.07255005 151.29704201 -16.57940674 151.2784729 C-15.04439542 151.281375 -15.04439542 151.281375 -13.47837377 151.28433573 C-12.07655264 151.27313749 -12.07655264 151.27313749 -10.6464119 151.26171303 C-9.83988591 151.25943471 -9.03335993 151.25715638 -8.20239377 151.25480902 C-5.69273827 150.96445092 -4.10651958 150.39215426 -2 149 C-0.93084803 145.79254409 -0.86204787 143.46939602 -0.84178162 140.09651184 C-0.8319928 138.86392136 -0.82220398 137.63133087 -0.81211853 136.36138916 C-0.80621437 134.99328652 -0.80040392 133.62518347 -0.79467773 132.25708008 C-0.78509883 130.81822936 -0.77508874 129.37938145 -0.76467896 127.9405365 C-0.73762512 124.03176589 -0.71661815 120.1229832 -0.69667697 116.21417069 C-0.67482038 112.13020004 -0.64743009 108.04626665 -0.62062073 103.96232605 C-0.57068942 96.22759908 -0.52575221 88.49285143 -0.48259836 80.758084 C-0.43322973 71.95283696 -0.37831021 63.1476273 -0.32291877 54.34241641 C-0.20909201 36.22831231 -0.10225447 18.11417294 0 0 Z " fill="#4D8F1D" transform="translate(456,232)"/>
<path d="M0 0 C5.28 0 10.56 0 16 0 C16 2.97 16 5.94 16 9 C16.70125 9.0825 17.4025 9.165 18.125 9.25 C22.9931034 10.51994002 26.0976939 12.92698734 29.3125 16.75 C31.36412147 20.70127099 31.69551872 23.58502151 32 28 C29.37438891 28.08074203 26.75124324 28.1403623 24.125 28.1875 C23.00544922 28.22520508 23.00544922 28.22520508 21.86328125 28.26367188 C19.6953125 28.29296875 19.6953125 28.29296875 16 28 C15.34 27.01 14.68 26.02 14 25 C11.10391601 24.63501966 11.10391601 24.63501966 7.875 24.8125 C6.77929688 24.83957031 5.68359375 24.86664063 4.5546875 24.89453125 C3.29011719 24.94673828 3.29011719 24.94673828 2 25 C1.61781233 26.65614657 1.28604898 28.32457024 1 30 C2.84835483 31.84835483 6.01832286 31.21970224 8.5 31.3125 C15.66954821 31.80795658 21.71924076 32.5524225 26.84375 37.9375 C31.6353334 44.0851919 32.81503516 49.26290569 32 57 C30.22072265 62.8766989 27.07428929 66.65096907 22 70 C18.625 70.8125 18.625 70.8125 16 71 C16 73.97 16 76.94 16 80 C10.72 80 5.44 80 0 80 C0 77.03 0 74.06 0 71 C-0.86625 70.938125 -1.7325 70.87625 -2.625 70.8125 C-6.73469746 69.82312839 -9.32100092 68.19824328 -12 65 C-14.54129483 60.59979507 -16 57.11919471 -16 52 C-13.37438891 51.91925797 -10.75124324 51.8596377 -8.125 51.8125 C-7.37863281 51.78736328 -6.63226563 51.76222656 -5.86328125 51.73632812 C-3.6953125 51.70703125 -3.6953125 51.70703125 0 52 C0.66 52.99 1.32 53.98 2 55 C4.89608399 55.36498034 4.89608399 55.36498034 8.125 55.1875 C9.22070312 55.16042969 10.31640625 55.13335937 11.4453125 55.10546875 C12.28835938 55.07066406 13.13140625 55.03585937 14 55 C14.38218767 53.34385343 14.71395102 51.67542976 15 50 C13.08592481 48.08592481 9.48462912 48.77533204 6.9375 48.6875 C0.00089735 48.31686058 -5.34659826 47.42741813 -10.515625 42.578125 C-15.277248 37.26918901 -16.49088512 32.52031605 -16.3046875 25.55859375 C-15.56310062 19.33116542 -12.84658721 15.37003606 -8 11.5 C-4.85169208 9.18796137 -4.14629837 9 0 9 C0 6.03 0 3.06 0 0 Z " fill="#030200" transform="translate(296,256)"/>
<path d="M0 0 C39.6 0 79.2 0 120 0 C120 5.28 120 10.56 120 16 C80.4 16 40.8 16 0 16 C0 10.72 0 5.44 0 0 Z " fill="#000000" transform="translate(256,144)"/>
<path d="M0 0 C39.6 0 79.2 0 120 0 C120 5.28 120 10.56 120 16 C80.4 16 40.8 16 0 16 C0 10.72 0 5.44 0 0 Z " fill="#000000" transform="translate(256,104)"/>
<path d="M0 0 C39.6 0 79.2 0 120 0 C120 5.28 120 10.56 120 16 C80.4 16 40.8 16 0 16 C0 10.72 0 5.44 0 0 Z " fill="#000000" transform="translate(256,64)"/>
<path d="M0 0 C7.92 0 15.84 0 24 0 C24 5.28 24 10.56 24 16 C16.08 16 8.16 16 0 16 C0 10.72 0 5.44 0 0 Z " fill="#000000" transform="translate(376,288)"/>
<path d="M0 0 C7.92 0 15.84 0 24 0 C24 5.28 24 10.56 24 16 C16.08 16 8.16 16 0 16 C0 10.72 0 5.44 0 0 Z " fill="#000000" transform="translate(208,288)"/>
<path d="M0 0 C0 7.59 0 15.18 0 23 C-7.59 23 -15.18 23 -23 23 C-19.45956972 12.37870915 -13.50400104 6.45483504 -4 1 C-2 0 -2 0 0 0 Z " fill="#62C07B" transform="translate(440,345)"/>
<path d="M0 0 C10.79157262 4.31662905 15.55711311 7.1357651 21 17 C21.66 18.98 22.32 20.96 23 23 C15.41 23 7.82 23 0 23 C0 15.41 0 7.82 0 0 Z " fill="#62C07B" transform="translate(168,345)"/>
<path d="M0 0 C7.59 0 15.18 0 23 0 C23 7.59 23 15.18 23 23 C12.7094921 19.5698307 5.95924987 13.59424109 1 4 C0.67 2.68 0.34 1.36 0 0 Z " fill="#62C07B" transform="translate(417,224)"/>
<path d="M0 0 C7.59 0 15.18 0 23 0 C18.68337095 10.79157262 15.8642349 15.55711311 6 21 C4.02 21.66 2.04 22.32 0 23 C0 15.41 0 7.82 0 0 Z " fill="#62C07B" transform="translate(168,224)"/>
</svg>
